<svg width="270" height="247" viewBox="0 0 270 247" fill="none" xmlns="http://www.w3.org/2000/svg">
<g filter="url(#filter0_di_281_115456)">
<path d="M1.90002 105.762C15.7963 105.568 22.7444 99.6618 22.7444 88.0428V44.4713C22.7444 31.3031 27.4923 20.7491 36.9881 12.8094C46.4839 4.86975 59.1064 0.899902 74.8555 0.899902H116.544V47.3761H99.174C92.2259 47.3761 88.7518 50.2809 88.7518 56.0904V88.0428C88.7518 95.4015 87.2464 101.405 84.2355 106.052C81.4562 110.506 78.3296 113.992 74.8555 116.509C70.6866 119.608 66.0545 121.738 60.9592 122.9C66.0545 124.449 70.6866 126.676 74.8555 129.581C78.3296 132.292 81.4562 135.875 84.2355 140.328C87.2464 144.589 88.7518 150.398 88.7518 157.757V189.709C88.7518 195.519 92.2259 198.424 99.174 198.424H116.544V244.9H74.8555C59.1064 244.9 46.4839 240.93 36.9881 232.99C27.4923 225.051 22.7444 214.497 22.7444 201.328V157.757C22.7444 146.332 15.7963 140.425 1.90002 140.038V105.762Z" fill="url(#paint0_linear_281_115456)"/>
<path d="M268.9 140.038C255.004 140.425 248.056 146.332 248.056 157.757V201.328C248.056 214.497 243.308 225.051 233.812 232.99C224.316 240.93 211.694 244.9 195.945 244.9H154.256V198.424H171.626C178.574 198.424 182.048 195.519 182.048 189.709V157.757C182.048 150.398 183.438 144.589 186.217 140.328C189.228 135.875 192.47 132.292 195.945 129.581C200.113 126.676 204.746 124.449 209.841 122.9C204.746 121.738 200.113 119.608 195.945 116.509C192.47 113.992 189.228 110.506 186.217 106.052C183.438 101.405 182.048 95.4015 182.048 88.0428V56.0904C182.048 50.2809 178.574 47.3761 171.626 47.3761H154.256V0.899902H195.945C211.694 0.899902 224.316 4.86975 233.812 12.8094C243.308 20.7491 248.056 31.3031 248.056 44.4713V88.0428C248.056 99.6618 255.004 105.568 268.9 105.762V140.038Z" fill="url(#paint1_linear_281_115456)"/>
</g>
<defs>
<filter id="filter0_di_281_115456" x="2.44379e-05" y="-9.76324e-05" width="269.8" height="246.8" filterUnits="userSpaceOnUse" color-interpolation-filters="sRGB">
<feFlood flood-opacity="0" result="BackgroundImageFix"/>
<feColorMatrix in="SourceAlpha" type="matrix" values="0 0 0 0 0 0 0 0 0 0 0 0 0 0 0 0 0 0 127 0" result="hardAlpha"/>
<feOffset dx="-0.5" dy="0.5"/>
<feGaussianBlur stdDeviation="0.7"/>
<feComposite in2="hardAlpha" operator="out"/>
<feColorMatrix type="matrix" values="0 0 0 0 0 0 0 0 0 0 0 0 0 0 0 0 0 0 1 0"/>
<feBlend mode="normal" in2="BackgroundImageFix" result="effect1_dropShadow_281_115456"/>
<feBlend mode="normal" in="SourceGraphic" in2="effect1_dropShadow_281_115456" result="shape"/>
<feColorMatrix in="SourceAlpha" type="matrix" values="0 0 0 0 0 0 0 0 0 0 0 0 0 0 0 0 0 0 127 0" result="hardAlpha"/>
<feOffset dx="-1" dy="1"/>
<feGaussianBlur stdDeviation="1.15"/>
<feComposite in2="hardAlpha" operator="arithmetic" k2="-1" k3="1"/>
<feColorMatrix type="matrix" values="0 0 0 0 0 0 0 0 0 0 0 0 0 0 0 0 0 0 0.3 0"/>
<feBlend mode="normal" in2="shape" result="effect2_innerShadow_281_115456"/>
</filter>
<linearGradient id="paint0_linear_281_115456" x1="162.899" y1="8.8426" x2="298.537" y2="188.928" gradientUnits="userSpaceOnUse">
<stop offset="0.278846" stop-color="#4F9DDE"/>
<stop offset="1" stop-color="#A3AAED"/>
</linearGradient>
<linearGradient id="paint1_linear_281_115456" x1="162.899" y1="8.8426" x2="298.537" y2="188.928" gradientUnits="userSpaceOnUse">
<stop offset="0.278846" stop-color="#4F9DDE"/>
<stop offset="1" stop-color="#A3AAED"/>
</linearGradient>
</defs>
</svg>
