<svg width="109" height="155" viewBox="0 0 109 155" fill="none" xmlns="http://www.w3.org/2000/svg">
<path d="M72.7619 142.66H36.8092C34.7845 142.66 33.1491 141.173 33.1491 139.333C33.1491 137.493 34.7845 136.006 36.8092 136.006H72.7619C74.7866 136.006 76.422 137.493 76.422 139.333C76.422 141.173 74.7866 142.66 72.7619 142.66Z" fill="#152B45"/>
<path d="M45.8948 145.916C45.0122 145.916 44.3372 146.647 44.493 147.45C45.3756 151.744 49.529 155 54.513 155C59.4971 155 63.6504 151.744 64.533 147.45C64.6887 146.647 64.0138 145.916 63.1312 145.916H45.8948Z" fill="#152B45"/>
<path d="M68.9459 131.783H40.08C35.07 131.783 30.8647 128.22 30.5013 123.689C29.2813 108.895 22.6358 99.5281 15.601 89.6181C7.94327 78.788 0 67.6038 0 49.5299C0 25.109 19.2353 4.53409 45.713 0.640896C51.9171 -0.279313 58.4327 -0.208609 64.5848 0.853172C90.3098 5.21827 109 25.6988 109 49.5299C109 67.6274 101.083 78.8116 93.3989 89.6181C86.3641 99.5281 79.7187 108.919 78.4987 123.689C78.1353 128.22 73.904 131.783 68.92 131.783H68.9459ZM54.513 6.44535C51.9431 6.44535 49.3732 6.63406 46.8812 6.98799C23.8559 10.3857 7.13861 28.2472 7.13861 49.5064C7.13861 65.6927 14.1733 75.6261 21.5975 86.1023C28.788 96.2718 36.2381 106.772 37.588 123.194C37.6918 124.374 38.7821 125.317 40.1059 125.317H68.9719C70.2957 125.317 71.386 124.397 71.4898 123.194C72.8397 106.772 80.2898 96.2718 87.4803 86.1023C94.9304 75.6025 101.939 65.6927 101.939 49.5064C101.939 28.7663 85.6892 10.9756 63.3129 7.17679C60.4315 6.68129 57.4723 6.44535 54.513 6.44535Z" fill="#152B45"/>
<path d="M78.4987 40.6583C82.5846 40.6583 85.8969 37.6475 85.8969 33.9336C85.8969 30.2197 82.5846 27.209 78.4987 27.209C74.4128 27.209 71.1005 30.2197 71.1005 33.9336C71.1005 37.6475 74.4128 40.6583 78.4987 40.6583Z" stroke="#C17FD9" stroke-width="2" stroke-miterlimit="10"/>
<path d="M36.5496 40.965C42.2699 40.965 46.9071 36.75 46.9071 31.5505C46.9071 26.3511 42.2699 22.1361 36.5496 22.1361C30.8293 22.1361 26.1922 26.3511 26.1922 31.5505C26.1922 36.75 30.8293 40.965 36.5496 40.965Z" stroke="#C17FD9" stroke-width="2" stroke-miterlimit="10"/>
<path d="M26.1922 70.2937C29.5326 70.2937 32.2405 67.8323 32.2405 64.796C32.2405 61.7598 29.5326 59.2983 26.1922 59.2983C22.8518 59.2983 20.1438 61.7598 20.1438 64.796C20.1438 67.8323 22.8518 70.2937 26.1922 70.2937Z" stroke="#C17FD9" stroke-width="2" stroke-miterlimit="10"/>
<path d="M67.4144 64.8197C71.873 64.8197 75.4875 61.5342 75.4875 57.4815C75.4875 53.4288 71.873 50.1434 67.4144 50.1434C62.9557 50.1434 59.3412 53.4288 59.3412 57.4815C59.3412 61.5342 62.9557 64.8197 67.4144 64.8197Z" stroke="#C17FD9" stroke-width="2" stroke-miterlimit="10"/>
<path d="M57.031 102.926C61.5756 102.926 65.2598 99.5769 65.2598 95.446C65.2598 91.3151 61.5756 87.9664 57.031 87.9664C52.4863 87.9664 48.8021 91.3151 48.8021 95.446C48.8021 99.5769 52.4863 102.926 57.031 102.926Z" stroke="#C17FD9" stroke-width="2" stroke-miterlimit="10"/>
<path d="M44.0517 37.8505L61.5996 52.4087" stroke="#C17FD9" stroke-width="2" stroke-miterlimit="10"/>
<path d="M78.6025 40.9884L74.6828 54.2961" stroke="#C17FD9" stroke-width="2" stroke-miterlimit="10"/>
<path d="M70.9447 64.4655L81.1464 75.5789" stroke="#C17FD9" stroke-width="2" stroke-miterlimit="10"/>
<path d="M61.2881 91.2461L78.3429 74.3047" stroke="#C17FD9" stroke-width="2" stroke-miterlimit="10"/>
<path d="M32.2405 64.796L59.3672 57.4814" stroke="#C17FD9" stroke-width="2" stroke-miterlimit="10"/>
<path d="M47.4522 31.0787L70.5553 32.046" stroke="#C17FD9" stroke-width="2" stroke-miterlimit="10"/>
<path d="M36.5496 40.9884L29.0735 59.2982" stroke="#C17FD9" stroke-width="2" stroke-miterlimit="10"/>
<path d="M52.8256 91.2462L30.5272 68.9959" stroke="#C17FD9" stroke-width="2" stroke-miterlimit="10"/>
</svg>
