<svg width="483" height="86" viewBox="0 0 483 86" fill="none" xmlns="http://www.w3.org/2000/svg">
<g filter="url(#filter0_di_904_3304)">
<path d="M0.900024 34.188C0.900024 29.5064 1.70326 25.1592 3.30973 21.1464C4.97357 17.0728 7.21116 13.5464 10.0225 10.5671C12.8912 7.52713 16.2475 5.15592 20.0916 3.45351C23.993 1.75111 28.21 0.899902 32.7426 0.899902C36.8735 0.899902 40.4307 1.4471 43.4141 2.54151C46.3975 3.57511 48.8933 4.69992 50.9014 5.91592C53.1964 7.43593 55.1758 9.10793 56.8396 10.9319L46.5123 28.26C45.4796 27.348 44.3608 26.5272 43.1559 25.7976C42.1232 25.1288 40.9183 24.5512 39.5414 24.0648C38.2218 23.5176 36.8161 23.244 35.3244 23.244C32.2836 23.244 29.7878 24.2776 27.8371 26.3448C25.9437 28.3512 24.9971 30.9656 24.9971 34.188C24.9971 37.4104 25.9437 40.0553 27.8371 42.1225C29.7878 44.1289 32.2836 45.1321 35.3244 45.1321C36.8161 45.1321 38.2218 44.8889 39.5414 44.4025C40.9183 43.9161 42.1232 43.3385 43.1559 42.6697C44.3608 41.9401 45.4796 41.0889 46.5123 40.1161L56.8396 57.4441C55.1758 59.3289 53.1964 61.0009 50.9014 62.4601C48.8933 63.7369 46.3975 64.8922 43.4141 65.9258C40.4307 66.9594 36.8735 67.4762 32.7426 67.4762C28.21 67.4762 23.993 66.625 20.0916 64.9225C16.2475 63.2201 12.8912 60.8793 10.0225 57.9001C7.21116 54.8601 4.97357 51.3337 3.30973 47.3209C1.70326 43.2473 0.900024 38.8696 0.900024 34.188Z" fill="#4F9DDE"/>
<path d="M67.2911 29.3847C70.4385 29.3321 72.0121 27.7277 72.0121 24.5715V12.7357C72.0121 9.15865 73.0875 6.29176 75.2382 4.13502C77.3889 1.97827 80.2478 0.899902 83.8148 0.899902H93.2569V13.5247H89.3227C87.749 13.5247 86.9622 14.3138 86.9622 15.8919V24.5715C86.9622 26.5704 86.6212 28.2011 85.9393 29.4636C85.3098 30.6735 84.6016 31.6203 83.8148 32.3042C82.8706 33.1458 81.8214 33.7245 80.6674 34.0401C81.8214 34.4609 82.8706 35.0659 83.8148 35.8549C84.6016 36.5914 85.3098 37.5645 85.9393 38.7744C86.6212 39.9317 86.9622 41.5098 86.9622 43.5087V52.1883C86.9622 53.7664 87.749 54.5554 89.3227 54.5554H93.2569V67.1803H83.8148C80.2478 67.1803 77.3889 66.1019 75.2382 63.9451C73.0875 61.7884 72.0121 58.9215 72.0121 55.3445V43.5087C72.0121 40.4051 70.4385 38.8007 67.2911 38.6955V29.3847Z" fill="url(#paint0_linear_904_3304)"/>
<path d="M127.826 38.8421C124.678 38.9473 123.104 40.5517 123.104 43.6553V55.4911C123.104 59.0682 122.029 61.935 119.878 64.0918C117.728 66.2485 114.869 67.3269 111.302 67.3269H101.86V54.7021H105.794C107.368 54.7021 108.154 53.913 108.154 52.3349V43.6553C108.154 41.6564 108.469 40.0783 109.099 38.921C109.781 37.7112 110.515 36.738 111.302 36.0015C112.246 35.2125 113.295 34.6076 114.449 34.1867C113.295 33.8711 112.246 33.2925 111.302 32.4508C110.515 31.767 109.781 30.8201 109.099 29.6102C108.469 28.3477 108.154 26.717 108.154 24.7181V16.0385C108.154 14.4604 107.368 13.6714 105.794 13.6714H101.86V1.04655H111.302C114.869 1.04655 117.728 2.12492 119.878 4.28166C122.029 6.4384 123.104 9.30529 123.104 12.8823V24.7181C123.104 27.8743 124.678 29.4787 127.826 29.5313V38.8421Z" fill="url(#paint1_linear_904_3304)"/>
<path d="M158.307 37.9924V67.4762H137.663V0.899902H160.689L174.187 30.3837V0.899902H194.832V67.4762H171.805L158.307 37.9924Z" fill="#4F9DDE"/>
<path d="M225.312 37.9924V67.4762H204.668V0.899902H227.694L241.193 30.3837V0.899902H261.837V67.4762H238.81L225.312 37.9924Z" fill="#4F9DDE"/>
<path d="M295.932 48.4544H323.924V67.4762H271.673V0.899902H322.058V19.9217H295.932V24.6771H320.192V43.6989H295.932V48.4544Z" fill="#4F9DDE"/>
<path d="M333.759 34.188C333.759 29.5064 334.562 25.1592 336.169 21.1464C337.832 17.0728 340.07 13.5464 342.881 10.5671C345.75 7.52713 349.106 5.15592 352.95 3.45351C356.852 1.75111 361.069 0.899902 365.601 0.899902C369.732 0.899902 373.29 1.4471 376.273 2.54151C379.256 3.57511 381.752 4.69992 383.76 5.91592C386.055 7.43593 388.035 9.10793 389.698 10.9319L379.371 28.26C378.338 27.348 377.22 26.5272 376.015 25.7976C374.982 25.1288 373.777 24.5512 372.4 24.0648C371.081 23.5176 369.675 23.244 368.183 23.244C365.142 23.244 362.647 24.2776 360.696 26.3448C358.803 28.3512 357.856 30.9656 357.856 34.188C357.856 37.4104 358.803 40.0553 360.696 42.1225C362.647 44.1289 365.142 45.1321 368.183 45.1321C369.675 45.1321 371.081 44.8889 372.4 44.4025C373.777 43.9161 374.982 43.3385 376.015 42.6697C377.22 41.9401 378.338 41.0889 379.371 40.1161L389.698 57.4441C388.035 59.3289 386.055 61.0009 383.76 62.4601C381.752 63.7369 379.256 64.8922 376.273 65.9258C373.29 66.9594 369.732 67.4762 365.601 67.4762C361.069 67.4762 356.852 66.625 352.95 64.9225C349.106 63.2201 345.75 60.8793 342.881 57.9001C340.07 54.8601 337.832 51.3337 336.169 47.3209C334.562 43.2473 333.759 38.8696 333.759 34.188Z" fill="#4F9DDE"/>
<path d="M449.943 0.899902V22.775H434.978V67.4762H414.5V22.775H399.536V0.899902H449.943Z" fill="#4F9DDE"/>
<path d="M464.376 49.9707V34.1896H480.9V49.9707H464.376ZM480.9 60.2284L471.458 83.8999H458.868L464.376 60.2284H480.9Z" fill="url(#paint2_linear_904_3304)"/>
</g>
<defs>
<filter id="filter0_di_904_3304" x="2.44379e-05" y="-9.76324e-05" width="482.8" height="85.8" filterUnits="userSpaceOnUse" color-interpolation-filters="sRGB">
<feFlood flood-opacity="0" result="BackgroundImageFix"/>
<feColorMatrix in="SourceAlpha" type="matrix" values="0 0 0 0 0 0 0 0 0 0 0 0 0 0 0 0 0 0 127 0" result="hardAlpha"/>
<feOffset dx="0.5" dy="0.5"/>
<feGaussianBlur stdDeviation="0.7"/>
<feComposite in2="hardAlpha" operator="out"/>
<feColorMatrix type="matrix" values="0 0 0 0 0 0 0 0 0 0 0 0 0 0 0 0 0 0 1 0"/>
<feBlend mode="normal" in2="BackgroundImageFix" result="effect1_dropShadow_904_3304"/>
<feBlend mode="normal" in="SourceGraphic" in2="effect1_dropShadow_904_3304" result="shape"/>
<feColorMatrix in="SourceAlpha" type="matrix" values="0 0 0 0 0 0 0 0 0 0 0 0 0 0 0 0 0 0 127 0" result="hardAlpha"/>
<feOffset dx="1" dy="1"/>
<feGaussianBlur stdDeviation="1.15"/>
<feComposite in2="hardAlpha" operator="arithmetic" k2="-1" k3="1"/>
<feColorMatrix type="matrix" values="0 0 0 0 0 0 0 0 0 0 0 0 0 0 0 0 0 0 0.3 0"/>
<feBlend mode="normal" in2="shape" result="effect2_innerShadow_904_3304"/>
</filter>
<linearGradient id="paint0_linear_904_3304" x1="37.0881" y1="3.60173" x2="42.9413" y2="99.2534" gradientUnits="userSpaceOnUse">
<stop stop-color="#4F9DDE"/>
<stop offset="1" stop-color="#1B213F"/>
</linearGradient>
<linearGradient id="paint1_linear_904_3304" x1="37.0881" y1="3.60173" x2="42.9413" y2="99.2534" gradientUnits="userSpaceOnUse">
<stop stop-color="#4F9DDE"/>
<stop offset="1" stop-color="#1B213F"/>
</linearGradient>
<linearGradient id="paint2_linear_904_3304" x1="469.884" y1="34.1897" x2="469.884" y2="83.9" gradientUnits="userSpaceOnUse">
<stop stop-color="#1B213F"/>
<stop offset="1" stop-color="#4F9DDE"/>
</linearGradient>
</defs>
</svg>
